# xmcd
#
# Track frame offsets: 
#        150
#        13407
#        25210
#        38277
#        52657
#        66790
#        81915
#        96007
#        110142
#        124920
#        139582
#        154327
#        168390
#        180977
#        193612
#        205912
#        219305
#        232052
#        246175
#        261195
#        275332
#        288625
#        302297
#        317467
#
# Disc length: 4409 seconds
#
# Revision: 0
# Processed by: cddbd v1.5.2PL0 Copyright (c) Steve Scherf et al.
# Submitted via: ExactAudioCopyFreeDBPlugin 1.0
#
DISCID=4d113718
DTITLE=Bobby Leecan and Robert Cooksey - Complete Recorded Works Vol. 
DTITLE=1 (1924-1927)
DYEAR=1994
DGENRE=Blues
TTITLE0=West Indies Blues
TTITLE1=Forget Me Not Blues
TTITLE2=Nobody Knows and Nobody Cares Blues
TTITLE3=Give Me Just a Little of Your Time
TTITLE4=Black Cat Bone Blues
TTITLE5=Dirty Guitar Blues
TTITLE6=When My Wants Run Out
TTITLE7=Talk 'Bout Something That's Gwine to Happen
TTITLE8=Need More Blues
TTITLE9=Need More Blues
TTITLE10=Whiskey and Gin Blues
TTITLE11=Whiskey and Gin Blues
TTITLE12=Big Four
TTITLE13=South Street Stomp
TTITLE14=South Street Stomp
TTITLE15=I Wants a Real Man
TTITLE16=Scrubbin' Blues
TTITLE17=Good Woman Blues
TTITLE18=Second-Handed Blues
TTITLE19=Dead Drunk Blues
TTITLE20=Dollar Blues
TTITLE21=Maxwell and Peoria Blues
TTITLE22=South Street Blues
TTITLE23=Hock My Shoes
EXTD=
EXTT0=
EXTT1=
EXTT2=
EXTT3=
EXTT4=
EXTT5=
EXTT6=
EXTT7=
EXTT8=
EXTT9=
EXTT10=
EXTT11=
EXTT12=
EXTT13=
EXTT14=
EXTT15=
EXTT16=
EXTT17=
EXTT18=
EXTT19=
EXTT20=
EXTT21=
EXTT22=
EXTT23=
PLAYORDER=
